<?xml version="1.0" standalone="no"?><!DOCTYPE svg PUBLIC "-//W3C//DTD SVG 1.1//EN" "http://www.w3.org/Graphics/SVG/1.1/DTD/svg11.dtd"><svg t="1783361029753" class="icon" viewBox="0 0 2731 1024" version="1.1" xmlns="http://www.w3.org/2000/svg" p-id="5536" xmlns:xlink="http://www.w3.org/1999/xlink" width="682.75" height="256"><path d="M1330.684758 0h117.11901v41.929201c0 3.348383 1.636987 4.910962 4.836554 4.836553 69.460353-2.083439 139.441566 0 175.306472 71.394975 21.355245 42.226835 16.965142 106.515796 15.774606 156.927568a4.241286 4.241286 0 0 0 4.166877 4.910962c8.184937 0.781289 16.146649 1.48817 23.885135 2.455481 138.102212 16.5931 110.83149 146.808009 111.240736 249.26854a186.281729 186.281729 0 0 1-11.905363 78.463784 107.892353 107.892353 0 0 1-91.931726 59.191977h-86.127861l-44.012639-102.311714a3.385588 3.385588 0 0 1 0.223225-3.125158 3.199566 3.199566 0 0 1 2.678707-1.48817h93.382692a18.60213 18.60213 0 0 0 13.691167-6.101499 20.573956 20.573956 0 0 0 5.506231-14.360844q-0.669677-46.840163-0.52086-93.568713c0-28.052012-13.207512-42.412856-39.92017-43.156942q-45.277584-1.116128-171.660455 0c-2.976341 0-4.464511 1.636987-4.464511 4.836554l-0.446451 259.053261h-117.007397L1330.163899 409.246857a4.53892 4.53892 0 0 0-1.30215-3.311179 4.650532 4.650532 0 0 0-3.23677-1.450966h-109.34332a5.208596 5.208596 0 0 1-5.059779-5.208596V286.100757c0-3.720426 1.823009-5.729456 5.357414-5.729456l107.892353 0.223226a5.022575 5.022575 0 0 0 3.720426-1.636987 5.617843 5.617843 0 0 0 1.48817-3.720426V177.092276a6.473541 6.473541 0 0 0-6.250315-6.622358l-66.707238 0.297634c-3.4972 0-5.208596-1.860213-5.208597-5.50623l-0.223225-113.807831c0-3.348383 1.48817-4.985371 4.836554-4.985371h69.311536c2.976341 0 4.464511-1.48817 4.464511-4.687736L1330.721962 0z m121.248683 280.594527h72.659919a4.241286 4.241286 0 0 0 3.125158-1.413762 4.762145 4.762145 0 0 0 1.264945-3.273975l-0.372043-90.964415a12.351814 12.351814 0 0 0-11.53332-12.947082H1458.779024a11.161278 11.161278 0 0 0-8.184937 3.720426 13.877189 13.877189 0 0 0-3.348383 9.301065l0.372043 90.964415a4.427307 4.427307 0 0 0 4.315694 4.464511m-751.526047 8.184937c-28.238033 0.52086-79.356686 8.408163-90.48076-27.977603a122.774057 122.774057 0 0 1 17.858045-73.180779q39.622537-90.294738 77.868516-181.445175a5.50623 5.50623 0 0 1 5.357413-3.720426h111.612779a2.492685 2.492685 0 0 1 2.232256 1.339353 2.939137 2.939137 0 0 1 0.297634 2.678707l-64.549391 151.198112a11.868159 11.868159 0 0 0 0.818494 10.714827 10.56601 10.56601 0 0 0 8.929022 5.059779h95.800969a3.459996 3.459996 0 0 1 2.901932 1.562579 3.4972 3.4972 0 0 1 0.223226 3.348383q-41.48275 96.731075-82.742274 192.085593a29.242548 29.242548 0 0 0-3.4972 13.988802 10.156763 10.156763 0 0 0 10.863644 9.821924l60.642943 0.372043c3.4972 0 4.613328 1.785804 3.199566 5.208596l-39.213289 92.22936a7.738486 7.738486 0 0 1-7.440852 5.134188c-61.57305 0.744085-104.655583 0.744085-129.17319-0.372042-40.627052-1.860213-50.597793-37.427485-34.823187-74.073682l55.806389-130.028887a2.901932 2.901932 0 0 0-0.223225-2.52989 2.52989 2.52989 0 0 0-2.232256-1.264945zM235.912211 669.267429H192.048389l-43.008124-100.935157a3.236771 3.236771 0 0 1 0.223225-3.050749 2.976341 2.976341 0 0 1 2.52989-1.488171h60.680147a14.174823 14.174823 0 0 0 13.914394-14.472457L227.913295 13.914393a5.283005 5.283005 0 0 1 1.450966-3.720426 5.134188 5.134188 0 0 1 3.720426-1.599783h104.432357c4.910962 0 7.440852 2.604298 7.440852 7.738486q0.669677 271.851526 0 534.439191c-0.297634 71.841426-33.483834 120.951048-109.082889 118.569976" p-id="5537" fill="#707070"></path><path d="M1215.388757 669.267429H819.275004l53.090478-119.723308a7.068809 7.068809 0 0 1 6.919993-4.53892h96.991505a4.613328 4.613328 0 0 0 5.208596-5.208596V176.645825c0-3.125158-1.48817-4.687737-4.464511-4.687736l-64.326165-0.148818a5.394618 5.394618 0 0 1-5.208596-5.580638v-116.449333a3.162362 3.162362 0 0 1 3.050749-3.273975h262.252827c3.273975 0 4.836554 1.711396 4.836554 5.134188v115.333205a4.427307 4.427307 0 0 1-4.762146 4.836553h-64.847024c-2.976341 0-4.464511 1.562579-4.464512 4.687737v363.076371c0 3.4972 1.711396 5.208596 4.985371 5.208596l102.79537 0.223226c2.827524 0 4.241286 1.48817 4.241286 4.464511v119.723308z m471.750014-611.489214c80.919265-55.80639 137.878987 86.20227 49.221235 110.533856a200.53096 200.53096 0 0 1-68.865084 0.744085 4.204081 4.204081 0 0 1-4.166877-4.836553c-0.446451-33.483834-7.068809-85.234959 23.810726-106.329775zM570.155281 474.800763l-53.574134 124.857496c-4.836554 11.161278-10.119559 11.384503-15.997832 0.892902a491.28225 491.28225 0 0 1-60.531331-217.979758q-8.929022-103.167412-15.55138-206.55805c0-3.087954 1.302149-4.687737 4.241285-4.687737h108.487622a4.53892 4.53892 0 0 1 4.98537 4.762145q8.370958 120.244167 17.560411 239.855863a177.166685 177.166685 0 0 0 10.417193 51.081449 9.710312 9.710312 0 0 1 0 7.812894M0 470.187435V465.053247a52.346393 52.346393 0 0 0 9.673108-23.513092Q21.727288 308.795356 29.391365 176.124966c0.372043-2.753115 1.562579-4.315694 4.092469-4.315695h110.868694a3.720426 3.720426 0 0 1 2.678707 1.264945 3.720426 3.720426 0 0 1 0.96731 2.827524q-8.780205 122.402015-19.532236 244.580804a364.89938 364.89938 0 0 1-63.58208 186.244524c-2.52989 3.050749-4.687737 2.753115-6.324724-0.967311z m755.767332 199.079994H595.268156l-20.425139-8.110529a3.720426 3.720426 0 0 1-2.381072-6.02709l50.374567-115.333205a5.655047 5.655047 0 0 1 7.440852-3.720426 696.649764 696.649764 0 0 0 175.046042 9.00343c3.4972 0 4.464511 1.785804 2.976341 5.05978l-52.346393 119.053631z" p-id="5538" fill="#707070"></path></svg>