<?xml version="1.0" standalone="no"?><!DOCTYPE svg PUBLIC "-//W3C//DTD SVG 1.1//EN" "http://www.w3.org/Graphics/SVG/1.1/DTD/svg11.dtd"><svg t="1783180405056" class="icon" viewBox="0 0 1024 1024" version="1.1" xmlns="http://www.w3.org/2000/svg" p-id="44323" xmlns:xlink="http://www.w3.org/1999/xlink" width="256" height="256"><path d="M278.352371 194.078286H471.529586c18.523141 0 33.523916 12.712261 33.523916 28.404197s-15.000775 28.399078-33.523916 28.399079H278.36261c-18.523141 0-33.523916-12.707141-33.523916-28.399079 0-15.691937 15.000775-28.404198 33.518796-28.404197z" fill="#000000" p-id="44324"></path><path d="M402.387789 249.709146v170.36887c0 16.331902-12.707141 29.566374-28.404198 29.566374-15.691937 0-28.399078-13.229352-28.399078-29.566374V249.709146C345.584513 233.377244 358.291654 220.147892 373.983591 220.147892c15.697057 0 28.404198 13.229352 28.404198 29.561254zM306.807766 532.72206h439.747973a26.136163 26.136163 0 0 1 0 52.272325H306.807766a26.136163 26.136163 0 0 1 0-52.272325zM537.471559 394.095445h207.942483a26.136163 26.136163 0 0 1 0 52.272325H537.476679a26.136163 26.136163 0 0 1 0-52.272325z m-230.668913 285.209273h439.747974a26.136163 26.136163 0 0 1 0 52.272325H306.807766a26.136163 26.136163 0 0 1 0-52.272325z m0 145.4512h313.618591a26.136163 26.136163 0 0 1 0 52.267206H306.807766a26.136163 26.136163 0 0 1 0-52.272325zM903.362475 305.002105h-227.259181c-32.612606 0-59.081551-26.474064-59.08155-59.081551V39.565184h52.267205v206.350251c0 3.752754 3.066711 6.819465 6.814345 6.819465h227.264301v52.272325z" fill="#000000" p-id="44325"></path><path d="M891.62808 1023.943683H132.322642C94.682472 1023.943683 64 996.865492 64 963.64364V60.300043C64 27.073071 94.682472 0 132.322642 0H185.183735c16.372859 0 29.648289 11.719035 29.648289 26.166881 0 14.447845-13.27543 26.166881-29.643169 26.166881H132.317523c-5.027563 0-9.020944 3.532606-9.020944 7.966281v903.343597c0 4.438796 3.99338 7.966282 9.020944 7.966281h759.305438c5.027563 0 9.020944-3.532606 9.020944-7.966281V253.139357L640.633885 52.333762H404.333282c-16.372859 0-29.653409-11.719035-29.653409-26.161761C374.679873 11.713916 387.960422 0 404.333282 0h247.512786c7.218803 0 14.18162 2.273155 19.46517 6.486683l278.456365 215.028174c6.445725 5.001965 10.18312 12.169571 10.18312 19.680197v722.448586c0 33.226973-30.682472 60.300043-68.322643 60.300043zM325.346266 51.197184H273.667828C256.839314 51.197184 243.190145 39.729015 243.190145 25.598592s13.649169-25.598592 30.477683-25.598592h51.678438C342.17478 0 355.82395 11.468169 355.82395 25.598592s-13.649169 25.598592-30.477684 25.598592z" fill="#000000" p-id="44326"></path></svg>