<?xml version="1.0" standalone="no"?><!DOCTYPE svg PUBLIC "-//W3C//DTD SVG 1.1//EN" "http://www.w3.org/Graphics/SVG/1.1/DTD/svg11.dtd"><svg t="1783180441241" class="icon" viewBox="0 0 1092 1024" version="1.1" xmlns="http://www.w3.org/2000/svg" p-id="46420" xmlns:xlink="http://www.w3.org/1999/xlink" width="273" height="256"><path d="M521.53079 7.689332c13.686513-9.742309 33.283111-9.854289 47.019392-0.149308 164.151057 111.632175 328.302114 223.301677 492.440729 334.958737 5.574143 3.894435 11.683305 7.266294 16.100316 12.566707 14.134435 15.453317 18.638542 39.031446 10.799903 58.503621-6.519757 14.806318-18.675869 26.987315-33.220899 33.99232-1.779247 1.007825-3.857108 0.858518-5.798105 0.808749-24.67305-1.331324-49.433196-0.646999-74.044034 1.505516-0.024885 146.383475-0.012442 292.76695 0 439.162868 10.016039-0.024885 20.243597-0.447922 29.961021 2.513341 23.478591 6.395334 42.490401 26.489623 47.504642 50.304156 4.454338 19.758348-0.622114 41.407922-13.586975 56.998104-12.044131 15.216914-30.943961 23.864301-50.105079 25.145857H104.826245c-9.767193-0.771422-19.633925-2.438688-28.455504-6.880583-17.879563-8.348773-31.59096-24.984107-36.356355-44.132783-4.392126-17.083256-1.74192-35.858663 7.340948-50.988481 9.953827-16.921507 27.659198-29.027849 47.056719-32.076209 7.62712-1.293998 15.366221-0.771422 23.055553-0.895844 0.024885-67.014143 0.012442-134.015844-0.149307-201.017546 0.099538-79.966561-0.634557-159.933123 0.398153-239.874799-25.145857 0.410595-50.304156 0.87096-75.462454 1.343766-2.500899 0.311057-4.553876-1.293998-6.544642-2.525783-13.375456-8.684714-24.660608-20.865711-31.615844-35.248992-7.987947-21.62469-1.729478-48.052102 15.751931-63.244131C187.04486 234.835674 354.306488 121.287388 521.53079 7.689332M53.427169 385.760583a5.638843 5.638843 0 0 0-2.675091 3.745128c-1.592612 4.180608 2.687533 7.104544 4.989356 9.96627 48.188967-0.908287 96.377934-1.766804 144.566901-2.575553-10.94921 21.363402-22.246804 42.552612-33.00938 64.00311-0.460365 22.209478-0.149307 44.44384-0.360826 66.66576 0.087096 137.076646 0.410595 274.153293 0.298615 411.229939-20.492442 0.037327-40.997327 0-61.48977 0.012442-5.350182-0.074654-10.737691 2.239611-14.084665 6.469988-4.790279 5.661239-5.263086 14.420608-1.144691 20.591981 3.222552 5.113779 9.20729 8.137254 15.204472 8.025273 291.161896 0.012442 582.323791 0 873.485686 0 4.852491-0.111981 9.978712 0.609672 14.520146-1.542843 7.278736-3.123013 11.695747-11.571324 10.053366-19.322868-1.405978-8.025273-9.020656-14.358396-17.182795-14.196646-20.517327-0.049769-41.034654 0-61.539538-0.024885-0.024885-178.148627-0.012442-356.284812-0.012442-534.420996 14.333512-1.343767 28.679465-2.587995 43.025419-3.894435 23.603013-2.264496 47.342892-2.811956 71.033001-2.438688 3.558493-2.1774 3.844666-7.975504 0.149308-10.140462-164.686075-112.055213-329.384593-224.085541-494.095553-336.090984C381.231592 163.118348 217.354265 274.476792 53.427169 385.760583z" p-id="46421" fill="#000000"></path><path d="M533.064787 175.075383c15.192029-3.396744 31.640729-0.771422 45.003743 7.216525 16.150085 9.493463 27.621871 26.626488 29.96102 45.252588 2.140073 15.590182-1.916112 31.926902-11.185613 44.642916-10.040923 14.022454-26.128797 23.553244-43.286707 25.407145-19.074022 2.326707-39.031446-4.840049-52.182941-18.862504-13.487436-13.910474-19.733463-34.402916-16.28695-53.476938 3.86955-24.424204 23.752321-45.240146 47.977448-50.179732zM250.736914 494.829648c17.618275-5.051567 37.264642 8.734484 38.546197 26.987314 0.43548 17.655601 0.062211 35.336087 0.186634 52.991689-0.012442 70.522868 0.012442 141.045735-0.024885 211.581045 0 8.896233-4.018858 17.692928-10.837229 23.441264-8.634945 7.62712-21.649575 9.655213-32.225517 5.126221-11.334921-4.578761-19.273098-16.336719-19.111349-28.592369-0.024885-87.108433-0.024885-174.229307 0-261.350183-0.311057-13.898032 9.978712-26.987315 23.466149-30.184981zM452.214824 494.854532c17.630717-5.113779 37.339295 8.672272 38.633293 26.949988 0.423038 17.269891 0.062211 34.552224 0.186634 51.822114-0.012442 70.933463 0.024885 141.866926-0.024885 212.787947-0.012442 8.908676-4.056185 17.717813-10.886998 23.453706-8.634945 7.589793-21.62469 9.605443-32.175748 5.088894-11.359806-4.591203-19.310425-16.386488-19.111348-28.654581-0.037327-85.005687 0-170.011373-0.024885-255.017059-0.024885-5.449721-0.236403-11.048748 1.629939-16.249624 3.234994-9.829405 11.733074-17.692928 21.773998-20.181385zM637.741725 494.817205c9.145079-2.326707 19.285541-0.211519 26.6887 5.648797 7.51514 5.760778 12.031689 15.117375 11.98192 24.585954 0.024885 86.685395-0.012442 173.383232 0.012442 260.068627 0.27373 9.281944-3.658032 18.638542-10.799902 24.660608-8.398542 7.440486-20.977691 9.617886-31.429211 5.524374-11.770401-4.342357-20.156501-16.386488-19.969866-28.965638-0.037327-85.043013 0-170.086027-0.024885-255.12904-0.024885-5.449721-0.223961-11.061191 1.667267-16.262066 3.272321-9.841847 11.807728-17.680486 21.873535-20.131616zM825.533123 494.84209c8.858906-2.276938 18.688311-0.410595 26.041701 5.076452 7.900851 5.686124 12.728457 15.254241 12.716014 24.996549 0.024885 85.08034-0.012442 170.173123 0.012443 255.265905-0.012442 4.553876 0.236403 9.20729-0.970498 13.661629-2.276938 9.53079-9.468578 17.668044-18.551446 21.263863-8.622503 3.521166-18.800292 2.849283-26.875335-1.766804-9.605443-5.312855-15.938566-16.01322-15.801701-26.999757-0.037327-85.043013 0-170.073584-0.024884-255.116598-0.024885-5.412394-0.236403-10.998979 1.629939-16.174969 3.234994-9.841847 11.745516-17.717813 21.823767-20.20627z" p-id="46422" fill="#000000"></path></svg>