<?xml version="1.0" standalone="no"?><!DOCTYPE svg PUBLIC "-//W3C//DTD SVG 1.1//EN" "http://www.w3.org/Graphics/SVG/1.1/DTD/svg11.dtd"><svg t="1783180985737" class="icon" viewBox="0 0 1024 1024" version="1.1" xmlns="http://www.w3.org/2000/svg" p-id="61610" xmlns:xlink="http://www.w3.org/1999/xlink" width="256" height="256"><path d="M762.220188 761.545521a286.341116 286.341116 0 0 0-184.294016-175.15547 199.524926 199.524926 0 1 0-169.063106 0A287.102661 287.102661 0 0 0 221.522868 761.545521a30.461821 30.461821 0 0 0 18.277092 38.838822 26.654093 26.654093 0 0 0 10.661638 0 31.223366 31.223366 0 0 0 28.177184-20.56173 228.463656 228.463656 0 0 1 424.180855 0 29.700275 29.700275 0 0 0 38.838822 18.277093A30.461821 30.461821 0 0 0 762.220188 761.545521zM353.270243 403.619126a137.839739 137.839739 0 1 1 137.839739 138.601285A137.839739 137.839739 0 0 1 353.270243 403.619126z" fill="#000000" p-id="61611"></path><path d="M1010.484027 953.454992l-152.309104-152.309104a482.81986 482.81986 0 1 0-57.115914 58.639005l152.309104 152.309104a41.123458 41.123458 0 0 0 57.87746 0 41.885004 41.885004 0 0 0-0.761546-58.639005zM200.961139 761.545521a402.096035 402.096035 0 1 1 567.351413 13.707819A403.619126 403.619126 0 0 1 200.961139 761.545521z" fill="#000000" p-id="61612"></path></svg>