<?xml version="1.0" standalone="no"?><!DOCTYPE svg PUBLIC "-//W3C//DTD SVG 1.1//EN" "http://www.w3.org/Graphics/SVG/1.1/DTD/svg11.dtd"><svg t="1783180326952" class="icon" viewBox="0 0 2626 1024" version="1.1" xmlns="http://www.w3.org/2000/svg" p-id="38588" xmlns:xlink="http://www.w3.org/1999/xlink" width="656.5" height="256"><path d="M1226.61571 193.912248c-33.627995 0.275639-127.207537 0.275639-141.127322 0 1.653836-57.332974-35.144011-84.207806-62.98358-91.787887-15.297981-3.99677-37.349125-9.371736-66.291252-6.890983-43.41319 1.378197-87.377658 15.57362-122.521669 57.884253-31.5607 34.317093-40.243338 98.678869-42.586271 125.829341-2.480754 13.092867-1.240377 51.26891 0 62.98358 2.067295 37.486945 9.096097 89.858412 39.14078 130.928667 26.737012 33.490175 51.682369 48.650336 113.976851 59.538089 42.034993-0.413459 107.774966-2.205114 142.918977-11.85249 0.275639-29.493405 0-85.723822 0-127.620996h-3.445491v-100.332705h132.720323V595.380888c-20.397308 4.548048-31.69852 7.580081-61.191925 13.644146-51.406729 4.410229-130.10175 11.025572-200.80323 11.85249-132.031225-2.618573-220.235801-47.961238-268.748318-137.819651-14.195424-34.041454-31.836339-56.368237-35.695289-164.970121-0.275639-28.942127 1.653836-62.707941 8.406999-93.579542 12.265949-63.810498 46.307402-132.858143 119.076177-178.614267C839.480313 11.71467 892.127419 0.551279 954.421901 0c47.13432 2.205114 71.666218 0.275639 139.611305 18.743472C1170.109653 45.342665 1226.064431 89.858412 1226.61571 193.912248z m1371.305518-8.544819c-16.124899 0.275639-83.932167 0-125.829341 0-7.580081-78.83284-60.778466-89.858412-95.371197-91.787887-23.429341 0.275639-53.474024 7.028802-71.390579 18.743473-15.297981 8.406999-32.663257 30.595962-34.041454 54.438762-0.275639 8.958277 0.275639 19.432571 1.653836 30.595962 12.265949 31.009421 51.682369 46.720861 71.528398 50.99327 25.496635 6.201884 64.913055 16.124899 105.432033 25.496636 43.13755 13.092867 94.6821 30.595962 127.620996 62.98358 26.599192 25.772275 37.762584 51.820188 37.486945 86.68856 0 69.185464-29.769044 118.800538-74.97389 149.67214-31.974159 22.188964-78.83284 35.41965-122.383849 42.586272-14.195424 1.929475-41.208075 4.548048-57.884253 5.099327s-50.166353-1.102557-76.627726-5.099327c-50.166353-9.647376-109.704441-25.220996-146.226649-85.034725-24.118439-46.720861-22.740242-76.627725-22.188963-108.877523 29.217766-0.275639 88.480215 0 132.720323 0 1.378197 46.858681 17.916555 75.111709 32.387618 86.68856 20.121669 17.089637 46.996501 24.118439 78.281561 23.842799 10.198654 0 23.980619-0.826918 49.339435-6.753163 41.897174-13.092867 58.297712-30.044684 66.291251-57.884253 1.102557-10.749933 1.929475-14.746703 0-20.397308-3.169852-31.285061-38.038223-54.714401-81.727052-68.082907-18.881292-5.374966-40.243338-10.749933-64.637416-16.951817-30.595962-5.650606-87.928937-23.153701-124.175505-44.240108-33.076716-23.153701-59.538089-40.794616-71.390579-97.025033-1.516016-18.881292-2.342934-27.977389 1.653836-49.201615 5.374966-32.111978 20.948587-93.303903 93.579543-132.720323 32.249798-15.84926 90.960969-38.589502 161.662449-39.140781 73.457873 3.99677 115.079408 22.740242 149.67214 49.339435 39.140781 32.525437 59.538089 84.759085 59.538089 136.027994zM156.583947 13.644145L314.800905 486.503365h3.307672L478.11719 13.644145h130.928668L382.883812 614.124361h-144.710633L11.873314 13.644145h144.710633z m1173.809959 0h217.892867l129.274832 437.16393h3.307671L1820.480582 13.644145h207.556393v600.480216h-124.175505V100.332705l-171.861103 513.791656h-112.323015l-163.316286-515.445492-3.445491 1.653836v513.791656h-122.521669V13.644145zM925.479774 233.053028h47.685599v59.538089h61.191925v47.547779h-61.191925V399.676985h-47.685599v-59.538089h-61.191924v-47.547779h61.191924v-59.538089z m225.886407 488.29502c7.580081 13.092867 12.955047 22.464603 16.400538 31.83634-4.548048 0.551279-7.85572 1.653836-14.195424 4.961507 4.410229 0.13782 90.960969 0 90.960969 0v15.160162s-24.531898 0.13782-31.836339 0c-8.682638 19.70821-17.227456 45.342665-48.512517 77.868102 14.057604 13.092867 42.448452 30.595962 81.864872 40.243338v4.548048c-4.272409 3.032032-5.237147 5.926245-9.096096 10.612113-1.102557-0.13782-2.067295 0-3.032033 0-23.015882-7.166622-55.816958-18.605653-82.69179-44.102288-24.118439 22.602423-57.332974 36.522207-87.102019 45.618304-3.85895-6.615343-6.201884-9.647376-9.096097-15.160161 37.349125-11.85249 61.881023-22.602423 84.759085-41.897174-13.781965-10.198654-38.313863-44.929206-49.890713-77.730282h-31.836339v-15.160162h92.476985c-4.13459-9.096097-9.647376-21.637685-16.400538-31.42288 7.442261-2.756393 12.265949-3.99677 17.227456-5.374967z m1341.260834 7.580081c-11.301211 24.256258-24.256258 43.688829-35.557469 61.054105 7.99354-1.378197 24.256258-3.032032 24.256258-3.032032 0.13782-0.275639 9.233917-13.368506 12.955047-22.740242 5.237147 3.307672 9.233917 5.237147 14.333244 9.096097-9.509556 15.297981-25.083176 40.932436-43.964469 60.502826 13.506326-2.205114 29.355585-5.512786 37.900404-7.442261 0.13782 6.890983 0.689098 8.958277 1.516016 13.506326-12.265949 2.894213-46.858681 10.612113-63.672678 15.160161-1.516016-4.410229-2.756393-7.580081-4.548049-13.644145 11.163392-7.99354 22.740242-20.259489 34.868372-39.278601-11.025572-0.275639-22.051144 2.894213-31.836339 4.548049-1.240377-3.99677-3.032032-10.198654-4.548049-15.160162 14.746703-11.576851 32.249798-47.685599 41.759354-70.288021 6.201884 3.721131 9.233917 5.099327 16.538358 7.7179z m85.723823 19.019112c-11.025572 3.169852-10.612113 4.13459-10.612113 4.134589h56.092597v13.644146h-56.092597c-15.84926 22.464603-23.015882 29.769044-28.804307 37.900404 11.71467 0 51.406729-3.169852 54.576581-3.032033-1.929475-9.233917-9.509556-12.541588-12.128129-21.224226 2.894213-1.102557 6.753163-2.894213 12.128129-4.548048 10.474293 14.333244 23.70498 32.111978 29.631225 44.653566-4.823688 2.894213-8.269179 5.099327-12.403769 7.580081-2.894213-5.099327-5.788425-8.958277-8.131359-14.333244-25.772275-0.551279-65.602153 5.374966-90.960969 9.096097-0.964738-4.823688-2.067295-7.99354-4.548048-15.160161 10.749933 3.032032 36.384388-34.317093 40.932436-40.932436-6.615343 0.13782-36.384388 0-36.384388 0v-13.644146h50.028533c-2.480754-9.785195-7.85572-15.71144-10.887752-25.496635 3.583311-1.929475 5.650606-3.169852 14.608883-5.099327 3.85895 9.096097 7.028802 15.435801 12.955047 26.461373z m-2235.710364-0.413459s11.99031-19.019112 15.160162-24.256258c3.583311-0.413459 10.474293 3.032032 15.160161 4.548048 0.13782 0.551279 0 0.689098 0 1.516016-3.445491 4.961507-7.7179 12.679408-12.128129 18.192194h39.41642v13.644145h-54.576581v39.41642h65.188694v12.128129H224.391214v-12.128129h65.188695v-39.41642h-53.060565v-13.644145h37.900403c-2.756393-8.131359-9.923015-15.57362-12.128129-19.70821 5.512786-1.929475 9.233917-4.823688 13.644146-4.548048 5.788425 3.721131 12.403769 14.746703 15.160161 19.70821-0.413459 1.378197-1.102557 2.067295-1.516016 3.032032-3.583311 0-4.548048-0.551279-4.548049 1.516016h57.608614z m187.848183-24.256258h15.160162v36.384387c22.878062-6.890983 45.067026-18.192194 48.512517-21.224226 1.378197-0.13782 4.548048 0 4.548048 0l9.096097 9.096097s-0.13782 1.929475 0 3.032032c-4.685868 1.516016-27.42611 14.195424-62.156662 22.740243v25.772274s1.791655 4.410229 6.064064 4.548049c4.548048 0.13782 40.381157 0 42.448453 0 3.445491-1.929475 5.237147-4.410229 6.064064-7.580081 0.964738-3.169852 1.378197-5.512786 1.516016-7.580081v-10.612113h1.516017c2.618573 2.894213 9.923015 4.272409 12.128129 4.548048-0.413459 21.775505-3.583311 23.429341-4.548049 27.288291-3.307672 4.272409-6.477524 5.512786-10.612113 7.580081h-51.544549s-14.471063 1.102557-18.192194-12.128129v-81.864872z m372.939973 74.284791c22.878062-16.124899 42.448452-32.525437 63.672679-74.284791h4.548048c1.791655 1.516016 9.371736 2.618573 12.128129 3.032032-0.964738 3.307672-4.13459 6.064065-1.516016 10.612113 11.163392 15.57362 33.903634 43.964468 59.12463 57.608614-0.826918 1.240377-0.964738 1.791655-1.516016 3.032032-2.480754 1.516016-6.201884 5.926245-9.096097 9.096097h-3.032032c-9.647376-7.028802-47.13432-40.105518-54.576582-59.12463H971.649357c-16.813997 30.458143-35.55747 44.240108-56.092597 62.156662-0.964738-0.551279-1.791655-1.102557-3.032033-1.516016-1.516016-2.205114-4.961507-6.753163-9.096097-10.612113z m425.58708 105.432032c-6.201884 3.85895-7.85572 5.099327-11.714671 7.028802-25.910094-22.464603-39.967699-53.887483-40.932436-92.752624-0.964738-50.304172 27.70175-80.900135 40.243338-94.268641 4.823688 2.205114 8.682638 4.823688 12.403769 6.890983-25.358816 26.323553-35.970929 52.371467-37.486945 87.377658 2.480754 42.999731 18.467833 65.877793 37.486945 85.723822z m406.567967 0.551279c19.019112-17.089637 37.486945-50.441992 37.900404-84.759085-0.689098-42.310633-17.640915-65.739973-37.900404-89.444953 2.756393-1.516016 6.615343-3.583311 13.644146-6.064064 11.301211 14.471063 39.41642 39.55424 39.41642 95.509017-2.756393 42.172813-15.57362 67.393809-40.656797 91.236608 0 0-7.7179-3.85895-12.403769-6.477523z m117.973621-177.787349s-3.307672 9.096097-4.272409 14.195424h54.576581v12.128129h-30.320323c2.618573 6.615343 5.237147 10.612113 7.580081 16.676178-2.618573 1.516016-7.7179 3.307672-12.955047 4.961507-3.583311-8.406999-7.99354-15.84926-11.301211-21.637685h-15.160162c-2.618573 6.201884-10.887752 18.881292-17.089637 23.429341-3.307672-1.378197-7.166622-3.721131-13.230686-7.166622 11.85249-14.195424 17.640915-21.913324 25.910094-45.756124 6.753163 0.964738 16.262719 3.169852 16.262719 3.169852z m82.140511 14.195424h62.156663v12.128129h-36.384388s7.028802 10.336474 10.887752 15.711441c-5.099327 2.894213-7.7179 3.85895-13.506325 6.477523-3.032032-5.650606-9.923015-15.435801-14.057605-22.188964h-15.160161c-5.788425 8.544818-8.682638 12.679408-12.128129 17.089637-2.618573-1.791655-6.753163-4.685868-13.092867-7.304441 9.647376-11.71467 14.884522-22.740242 21.224226-39.41642 3.307672 1.102557 9.371736 1.929475 15.297981 2.618573-2.480754 6.064065-3.721131 10.198654-5.237147 14.884522zM65.209519 729.341588v3.032032c-10.612113 24.256258-22.051144 45.480485-31.83634 59.12463h7.580081c3.99677-0.551279 9.923015-1.653836 18.192194-3.032032 4.685868-6.201884 9.647376-15.160162 13.644145-22.740242 0.826918 0 1.516016 0.13782 3.032033 0 3.583311 2.342934 5.926245 3.721131 10.612113 7.580081-17.503096 25.910094-32.938896 48.374697-43.964469 62.018842 16.262719-2.618573 28.666487-4.410229 37.900404-5.926245 0.275639 4.410229 0.13782 9.923015 0 13.506326-19.019112 1.929475-46.307402 9.096097-60.640646 12.128129-1.102557 0-2.205114-4.272409-4.548048-9.096097v-4.548048c10.474293-2.756393 26.874832-28.942127 34.868371-39.278601-10.612113 1.102557-20.535128 2.618573-31.836339 4.548049-1.102557-2.894213-2.342934-7.166622-4.548048-9.096097-0.13782-1.516016-0.13782-3.169852 0-4.548049 11.163392-7.304441 27.012651-42.310633 37.900403-69.736742 3.445491 1.653836 13.644145 6.064065 13.644146 6.064064z m134.925437 30.320323v13.644146h-36.384388v25.772274h31.83634v13.644145h-31.83634v25.634455h31.83634v13.644146h-31.83634V879.289367h39.41642v15.160162H116.754068v15.160161h-15.160162v-116.595424c-1.378197-0.275639-3.99677 3.85895-12.128129 15.160162h-3.032032c-1.653836-4.961507-3.445491-7.580081-5.374967-10.198654-0.964738-0.275639-0.551279-2.756393-0.689098-3.445491 15.84926-18.467833 27.839569-45.480485 37.900404-69.736743 2.618573 0 4.13459 0.826918 4.134589 0.826918s7.580081 2.618573 11.025572 3.72113c-4.410229 10.474293-8.544818 23.153701-13.644145 30.320323h80.348856z m-30.320323-6.064064c-4.272409 0.275639-11.85249 4.823688-15.160161 4.548048-1.240377-5.650606-11.99031-26.185734-13.644146-28.804307 5.237147-1.653836 10.198654-4.272409 13.644146-4.548048 2.894213 2.205114 14.057604 23.153701 15.160161 28.804307z m283.357201-28.804307h15.160161v27.28829h51.544549v13.644146h-51.544549v37.900404l53.060565-10.612114v13.644146l-71.252759 15.160161s-3.032032-6.339704-6.064064-12.128129c3.032032-2.618573 7.028802-7.85572 9.096097-12.128129v-72.768775z m248.626648 1.516016h15.160162v156.011844h36.384387V726.309556h15.160162v156.011844h57.608614v15.160161h-181.921938v-15.160161h57.608613V726.309556z m1675.473486 42.586272c-33.903634 24.394078-54.852221 35.970929-91.236608 55.265679 61.054105-3.99677 55.12786-3.032032 86.137281-6.064064-6.201884-6.339704-7.304441-7.7179-15.57362-15.573621 6.201884-3.583311 6.064065-3.032032 12.265949-6.615343 9.371736 8.406999 28.390848 24.256258 43.27537 44.929206-6.753163 5.099327-8.544818 5.374966-13.092867 8.269179-2.205114-2.894213-9.509556-12.679408-14.608883-18.330013-9.785195 0.551279-51.682369 3.032032-51.682369 3.032032v56.092597c0.13782 11.99031-4.410229 12.265949-13.644145 15.160162-14.471063 1.102557-18.192194 1.102557-25.772275 1.516016-2.756393-5.788425-4.410229-9.647376-7.442261-15.160161h28.666487c1.378197 0 2.894213-0.964738 3.032033-3.032033v-53.060565s-54.025303 2.480754-71.252759 7.580081c-1.653836-5.512786-1.240377-7.85572-5.512786-13.919785 18.054374-4.961507 43.551009-17.089637 69.185464-32.938896-29.217766 1.653836-38.176043 2.618573-52.509287 4.548048-1.102557-5.099327-1.653836-8.406999-4.410229-12.817227 14.195424-5.788425 29.769044-18.054374 47.823419-35.69529-31.42288 1.929475-43.27537 2.894213-54.576581 3.032033-1.516016-4.548048-2.205114-7.304441-4.548049-13.644146 47.961238-2.067295 104.880754-7.99354 143.745895-16.262718 3.583311 3.169852 7.028802 7.166622 11.439031 12.679407-31.285061 7.7179-47.40996 8.269179-72.079677 11.025572-12.265949 13.230686-28.253028 26.461373-42.172813 35.69529 11.576851 0 40.105518-1.240377 47.547779-2.342934 15.84926-8.131359 26.461373-17.365276 34.179274-23.153701 4.961507 3.99677 5.926245 5.237147 12.817227 9.785195zM870.076275 727.825572c20.397308 14.057604 29.906864 24.945357 37.900404 31.836339-4.548048 5.650606-7.028802 8.131359-10.612113 12.128129-5.099327-5.788425-28.804307-27.42611-36.384388-33.352355 3.169852-4.410229 5.374966-6.753163 9.096097-10.612113z m788.190579 1.516016h15.160161v63.672678h51.544549v15.160162h-51.544549v98.40323h-15.160161v-98.40323h-51.544549v-15.160162h51.544549v-63.672678zM1365.675737 731.822342c12.541588 10.060834 22.188964 19.983849 31.009421 29.217766-3.307672 4.13459-6.477524 7.028802-10.336474 10.060834-7.85572-8.682638-18.330013-19.156931-30.595962-30.458143 3.721131-3.445491 5.788425-5.512786 9.923015-8.820457z m203.559623 0c10.749933 7.304441 23.56716 17.778735 32.387618 28.942126-2.205114 3.85895-6.477524 7.580081-10.060835 11.025572-10.336474-10.612113-20.948587-21.637685-32.249798-31.147241 3.307672-3.032032 6.890983-6.753163 9.923015-8.820457z m525.644145 0.551278h105.983311v90.96097H2155.520151v24.118438h48.374697v13.644146H2155.520151v27.28829h55.954778v13.644146h-134.787618v-13.644146h63.672679v-27.28829h-46.996501v-13.644146h46.996501v-24.118438h-45.480485v-90.96097z m-665.53109 3.032033h63.672678v50.028533c0 1.516016 1.516016 2.618573 3.307672 2.756393 2.894213 0.13782 19.432571 0.275639 19.432571 0.275639V786.950202h4.548048v13.644145H1488.473045c-4.548048-1.378197-8.820458-5.512786-9.096097-10.612113-0.13782-7.166622 0-40.932436 0-40.932436H1442.99256c2.480754 44.515747-19.294751 50.304172-31.836339 60.640646-1.791655 0.13782-3.307672-0.413459-4.548048-1.516016-1.102557-1.240377-3.583311-4.13459-7.580081-9.096097 30.044684-15.71144 31.009421-26.047914 30.320323-63.672678z m591.246299 1.516016h65.188694v13.644145h-24.256258v45.480485h21.224226v13.644145h-21.224226v49.890713l22.740242-7.58008 1.516016 15.160161-63.672678 21.224226-4.548049-15.160161 28.804307-9.096097v-54.438762h-24.256258v-13.644145h24.256258v-45.480485h-25.772274v-13.644145z m89.444953 9.096097V771.79004h30.320323v-25.772274h-30.320323z m43.964468 0V771.79004h31.836339v-25.772274h-31.836339z m-1849.264065 15.160161v39.41642h25.772275v-39.41642h-25.772275z m69.736743 1.516016c7.580081 0.13782 7.85572 2.756393 13.644146 3.032033 2.067295 4.548048-10.336474 21.775505-16.676178 31.836339-7.166622 0.275639-7.442261-1.240377-13.644145-3.032032 5.926245-9.233917 10.198654-18.192194 16.676177-31.83634z m-113.701211 34.868372c-2.205114-9.647376-11.99031-24.256258-15.160161-30.320323 3.85895-1.929475 11.576851-4.13459 13.644145-4.548049 4.548048 5.237147 12.955047 20.397308 16.813997 30.458143-4.823688 1.378197-9.647376 3.85895-15.297981 4.410229z m1647.633917-33.352355l7.58008 15.160161h75.800808v33.352355h-15.160162v-21.224226h-137.957469v21.224226h-15.160162v-33.352355h77.316824l-6.064065-12.128129 13.644146-3.032032z m-1246.027457 4.548048s18.054374 36.108748 29.217766 66.291252c0 2.342934-0.275639 3.721131-0.413459 4.823688-5.650606 1.791655-9.647376 3.032032-12.679408 3.85895-0.964738 0.275639-1.653836 0.689098-2.480753 0.689098-11.301211-34.730552-23.56716-60.916285-26.461373-67.393809-0.964738-0.964738-0.551279-3.032032-0.826918-3.72113 3.85895-1.102557 13.644145-4.548048 13.644145-4.548049z m145.537551 1.516016c4.410229 0.13782 13.644145 6.064065 13.644145 6.064065s0.413459 1.791655 0 4.548048c-2.480754 4.685868-26.461373 55.403499-34.868371 65.050875-2.205114-0.275639-9.371736-3.307672-11.99031-6.339704 0-0.689098 0-1.240377-0.137819-2.756393 8.544818-12.679408 22.464603-37.211306 33.352355-66.566891z m-691.165545 3.032033v25.772274h31.836339v-25.772274H116.754068z m989.820727 0c5.512786 14.471063 23.429341 48.236878 44.515747 67.255989 21.775505-22.051144 29.631225-37.349125 43.413189-67.255989-10.612113 0.13782-74.146972 0-87.928936 0z m1003.464872 10.612113v25.772274h30.320323v-25.772274h-30.320323z m43.964468 0v25.772274h31.836339v-25.772274h-31.836339zM847.336033 786.950202h46.9965v84.759085s10.887752-8.682638 21.224227-15.160162c0.275639 4.410229 3.583311 9.096097 4.548048 10.612113 0.13782 1.102557 0.275639 2.067295 0 3.032033-4.961507 3.583311-26.185734 20.259489-40.932436 33.352355-1.516016 0.13782-3.032032 0-3.032032 0s-3.032032-6.753163-7.580081-9.096097c6.890983-5.650606 10.060834-16.262719 10.060834-16.262719s0.689098-59.12463 0.551279-76.076447h-31.836339v-15.160161z m492.567429 1.516016h43.964468v83.243069c8.820458-5.650606 12.128129-7.99354 19.70821-13.644146h1.516017c2.894213 5.926245 3.99677 7.99354 4.548048 12.12813-21.775505 16.124899-30.871602 22.740242-40.932436 31.836339-1.378197 0.13782-1.929475 0-3.032032 0-1.929475-3.85895-3.99677-5.650606-7.028802-11.163392 3.99677-2.618573 7.304441-7.028802 10.060834-14.608883V802.110363h-28.804307v-13.644145z m248.626649 0v83.243069c6.615343-3.583311 16.124899-11.163392 22.878062-14.333244 0.689098-0.413459 1.378197-0.551279 2.894212-0.826918 0.689098 3.85895 1.240377 6.753163 3.032033 9.509556 0 1.240377 0.13782 2.480754 0.137819 3.85895-4.823688 2.342934-31.974159 21.775505-45.618304 32.938897-4.410229-6.339704-6.064065-10.198654-8.269179-12.817228 5.926245-6.477524 8.131359-8.406999 9.785195-13.781965v-72.630955h-31.836339v-15.160162h46.996501z m-654.781158 9.096097h15.160162c0 13.644145-0.13782 35.144011 0 40.794616 15.84926-7.7179 35.695289-17.503096 56.919515-31.698519 2.756393 3.99677 7.7179 9.096097 9.785196 10.612113v3.032032c-33.903634 19.983849-58.98681 31.009421-66.704711 33.214536 0.13782 4.961507-0.13782 24.807537 0 30.320323 0.13782 2.067295 3.032032 6.064065 7.580081 6.064064 4.13459 0.13782 42.724092 0.13782 51.544549 0 4.548048-1.240377 7.442261-5.512786 8.820457-10.336473 0.964738-7.99354 1.653836-17.503096 1.653836-17.640915 5.237147 2.894213 8.544818 4.13459 13.781965 5.237146 0.13782 14.471063-2.894213 34.317093-18.192194 36.384388-15.435801 0.13782-54.99004 0-65.188694 0-8.131359-2.756393-12.679408-3.583311-15.160162-15.160162 0.13782-7.304441 0-90.823149 0-90.823149z m914.01992 6.064065h119.765276v40.794616h-104.605115v13.644145h115.217228v50.028533h-15.160162v-6.064064h-100.057066v6.064064h-15.160161v-104.467294z m-1731.014805 9.096096v25.634455h31.836339v-25.634455H116.754068z m1291.370121 1.516017s88.204576-0.13782 92.476985 0c4.272409 0 9.233917 1.516016 10.612113 3.032032-0.13782 0.964738 0 2.067295 0 3.032032-9.371736 22.326783-17.503096 37.762584-37.762584 53.749664 11.85249 8.820458 35.41965 16.951817 49.890713 20.397308 0.13782 0.689098 0.275639 1.102557 0 1.516016-3.307672 3.721131-5.512786 6.064065-7.58008 10.612113-3.032032 0.13782-3.169852 0.689098-6.064065 0-17.640915-3.85895-38.451682-13.230686-49.201615-22.602422-19.84603 13.506326-32.525437 17.365276-49.339435 22.602422-1.791655 0.13782-4.548048 0-4.548048 0s-4.685868-8.682638-6.064065-10.612113c-0.13782-1.240377 0.413459-2.205114 1.516016-3.032032 11.163392-2.205114 38.038223-11.439031 45.618304-18.743473-12.679408-11.71467-27.70175-30.595962-31.974158-46.307402h-7.580081v-13.644145z m454.804845 1.516016v16.538358h89.444953v-16.538358h-89.444953zM516.844512 818.786541h15.160161v27.150471h86.412921v13.644145H532.004673V909.60969h-15.160161v-50.028533h-83.243069v-13.644145H516.844512v-27.150471z m2016.025841 3.032032c6.890983 0 10.474293-0.13782 15.160162 0-0.964738 30.458143-3.99677 41.759354-9.096097 55.954778-13.506326 20.259489-24.531898 25.634455-36.384388 30.320323-3.99677-5.788425-6.477524-8.269179-10.060834-11.990309 7.99354-4.410229 23.842799-11.85249 29.769044-22.878062 5.788425-8.544818 9.371736-26.737012 10.612113-51.40673z m39.41642 0h15.160162v66.566891c0 1.791655 1.240377 3.032032 3.032032 3.032033h16.676177c2.894213 0 3.169852-3.85895 3.445492-7.442261 0.413459-3.445491 1.102557-14.195424 1.102557-21.362046 4.272409 3.169852 8.131359 4.685868 13.644145 6.064064 0.13782 16.124899-1.378197 22.464603-3.032032 27.288291-2.205114 3.99677-5.926245 7.028802-12.128129 9.096097-10.749933-0.275639-16.124899-0.275639-21.224226 0-6.890983-0.826918-15.435801-1.240377-16.676178-12.128129v-71.11494z m-2319.091252 3.032033h130.377389v83.243068h-15.160161v-6.064064h-100.057066v6.064064h-15.160162v-83.243068z m1238.447376 3.032032h-62.294482c5.650606 9.096097 18.192194 29.906864 31.836339 37.762584 14.057604-10.198654 23.980619-24.256258 30.458143-37.762584z m-1223.287214 8.958277v19.70821h100.057066v-19.70821h-100.057066z m2083.144011 17.227456c4.272409-3.583311 8.820458-6.201884 12.403768-8.682637 17.640915 14.333244 35.41965 27.150471 50.028533 42.172812-5.512786 3.85895-7.7179 5.374966-13.919785 9.371737-17.089637-17.640915-29.355585-28.253028-48.512516-42.861912z m-72.493136-7.304441c8.544818 2.205114 14.057604 4.823688 16.400538 5.926245-11.576851 13.506326-30.044684 33.076716-47.961238 43.826649-3.721131-3.169852-8.269179-7.028802-12.541588-10.336474 13.919785-9.233917 29.906864-21.499865 44.102288-39.41642zM116.754068 852.001077V879.289367h31.836339v-27.28829H116.754068zM2505.582062 876.257335c-27.56393 9.096097-53.336205 16.951817-66.566891 20.535128-1.102557-5.788425-1.929475-9.233917-3.169852-15.987079 13.506326-2.894213 48.925976-12.679408 66.704711-18.192194 1.791655 5.650606 2.480754 9.096097 3.032032 13.644145zM84.917729 865.645222l1.516016 13.644145c-21.913324 4.272409-53.749664 14.884522-69.736743 16.676178-0.413459-3.445491-1.791655-6.339704-1.516016-15.160161 19.57039-3.583311 50.993271-10.612113 69.736743-15.160162z m183.437954 3.032032v21.224226h100.057066v-21.224226h-100.057066z m1594.573351 1.516017v19.708209h100.057066v-19.708209h-100.057066zM259.259586 962.670256c-1.929475 0.275639-3.307672 0.964738-4.548049 0s-6.339704-5.099327-15.160161-6.064065c-16.813997 3.445491-20.810767 9.923015-22.740242 22.740242-1.929475 4.13459-1.791655 10.887752 0 15.160162 1.102557 14.057604 10.474293 22.188964 22.740242 24.256258 7.7179-0.826918 11.025572-4.13459 15.160161-6.064064 0.13782-5.788425 0-21.224226 0-21.224226h-15.160161v-4.548049h21.224226V1015.730821c-4.272409 4.961507-9.785195 6.615343-13.919785 7.580081-4.272409 0.826918-8.269179 0.964738-14.884522 0-15.435801-5.099327-21.637685-19.156931-22.740242-27.288291-1.102557-5.650606-0.964738-10.198654 0-18.192194 2.067295-7.7179 5.374966-14.884522 9.096097-18.192194 5.926245-4.548048 12.403769-7.442261 21.086406-8.544818 9.509556 1.516016 13.506326 2.342934 20.259489 7.166622 0.275639 2.205114-0.13782 3.583311-0.413459 4.410229z m519.85572-10.612113c23.980619 0.275639 30.458143 19.019112 30.320323 36.384387-0.689098 17.227456-6.615343 33.765814-28.804307 34.868372-22.326783 0.551279-29.493405-17.227456-30.320323-34.868372-0.551279-15.435801 4.685868-35.41965 28.804307-36.384387z m332.007537 0c20.672948-0.13782 30.733782 15.160162 30.320323 36.384387-0.551279 21.224226-11.439031 35.144011-28.804307 34.868372-21.499865 1.516016-30.182503-18.743472-30.320323-34.868372-0.13782-15.84926 4.548048-34.454913 28.804307-36.384387z m227.264603 57.608613c2.342934 0.275639 3.99677 0.964738 4.961507 4.961508-3.85895 3.85895-11.025572 8.682638-23.153701 8.682638-19.57039-0.413459-29.079946-16.951817-28.666487-36.384388-0.275639-15.022342 6.339704-35.006191 30.182503-34.868371 7.7179 0 16.676178 3.445491 19.019112 8.269179-0.826918 3.169852-2.067295 2.894213-5.374966 3.72113-1.791655-2.480754-7.028802-7.304441-13.644146-7.442261-7.7179-0.275639-24.394078 6.201884-24.118438 30.320323 0.13782 24.118439 13.368506 29.631225 22.602422 31.836339 7.442261-0.13782 12.403769-2.618573 18.192194-9.096097z m477.545087-50.028533l-3.032032 4.548049s-9.785195-7.85572-18.192194-7.580081c-18.467833 2.205114-24.394078 16.676178-24.256258 30.320323 0.13782 12.817227 4.272409 28.666487 24.256258 31.836339 3.307672 0.13782 12.541588-0.413459 15.160162-6.064064-0.13782-8.131359 0-21.224226 0-21.224226h-15.160162v-4.548049h21.224226V1015.730821c-3.032032 2.756393-6.064065 7.85572-21.224226 7.580081-17.503096 0.13782-30.458143-10.887752-30.320323-36.384388 0-12.403769 5.926245-35.006191 30.320323-34.868371 7.99354 0.13782 13.506326 2.067295 21.224226 7.58008z m445.570929-7.58008c7.442261-0.275639 16.400538 2.342934 19.70821 7.58008-1.102557 2.205114-3.032032 4.548048-3.032032 4.548049s-7.580081-7.304441-16.676178-7.580081c-2.618573 0.13782-13.368506 0.551279-13.644145 13.644145 0 3.721131 6.339704 8.682638 13.644145 12.12813 7.442261 3.445491 22.878062 6.753163 22.740242 22.740242-0.275639 12.541588-11.301211 18.467833-22.740242 18.192194-6.890983 0-17.916555-1.378197-24.256258-10.612113 0.689098-1.791655 3.583311-3.169852 6.064064-3.032033 1.240377 1.102557 11.71467 9.233917 18.192194 9.096097 6.615343-0.13782 16.813997-3.445491 16.676178-13.644145s-11.025572-13.092867-19.70821-16.676178c-5.788425-3.445491-16.676178-6.339704-16.676178-18.192194 0-11.025572 6.753163-18.605653 19.70821-18.192193z m106.121131 16.676177c-0.275639-8.820458 5.650606-16.676178 21.224226-16.676177 7.166622 0 17.227456 5.099327 18.743472 7.58008 1.240377 2.067295-2.342934 4.823688-4.134589 4.27241-2.618573-3.032032-7.304441-6.201884-14.746703-6.615344-6.477524 0.551279-15.160162 2.342934-15.022342 11.439031 0.13782 7.99354 10.060834 10.887752 15.160162 13.644146 11.71467 5.788425 20.948587 8.269179 21.224226 22.740242-0.275639 10.887752-7.028802 17.503096-22.740242 18.192194-10.749933-0.689098-20.259489-3.85895-22.740243-10.612113 0.551279-1.653836 0.275639-3.307672 4.548049-3.032033 2.756393 1.791655 7.7179 7.580081 18.192194 7.580081 7.7179-0.275639 16.400538-2.480754 16.676177-12.128129-1.240377-9.923015-7.304441-11.163392-19.70821-16.676178s-16.676178-9.647376-16.676177-19.70821zM6.084889 953.574159l20.535128 60.502826 20.397308-60.502826h6.064064L30.341147 1021.794886h-7.580081L0.020824 953.574159h6.064065z m68.220727 0h6.064064v68.220727h-6.064064v-68.220727z m36.384387 0c26.461373-0.13782 38.176043-2.067295 43.964469 13.644145 0.551279 3.99677 0.413459 7.028802 0 10.612113-4.13459 15.84926-17.365276 15.297981-37.900404 15.160162v28.804307h-6.064065c0-22.740242-0.13782-54.99004 0-68.220727z m178.889906 0h27.288291c11.71467 2.205114 16.951817 7.85572 16.676177 18.192194-0.275639 9.509556-5.099327 15.297981-16.538358 18.192193 3.032032 5.788425 17.916555 31.836339 18.054374 31.83634h-7.58008l-18.192194-31.83634h-13.644145v31.83634h-6.064065v-68.220727z m83.380888 0h7.580081l24.256258 68.220727h-7.58008l-7.580081-22.740243H363.8647l-7.58008 22.740243H348.704539l24.256258-68.220727z m54.576582 0s12.128129-0.13782 24.118438 0c15.84926 3.032032 24.256258 14.333244 24.256259 33.352355 0.13782 19.019112-7.304441 30.871602-24.256259 34.868372h-24.118438v-68.220727z m75.662988 0h6.064064s-0.13782 39.41642 0 45.480484c-0.13782 9.647376 5.788425 18.605653 18.192194 19.70821 12.817227-1.240377 16.538358-8.958277 18.192194-19.70821 0.13782-12.817227 0-45.480485 0-45.480484h6.064064v45.480484c-1.791655 17.089637-10.749933 23.56716-24.256258 24.256259-13.506326-0.964738-21.775505-4.272409-24.256258-24.256259v-45.480484z m92.476985 0h7.580081l24.256258 68.220727h-7.580081l-7.580081-22.740243h-25.772274l-7.580081 22.740243h-7.580081l24.256259-68.220727z m46.9965 0h51.54455v4.548048h-22.740243v63.672679h-6.064064v-63.672679h-22.740243v-4.548048z m74.284792 0h6.064064v68.220727h-6.064064v-68.220727z m118.24926 0h6.064064l36.384388 59.12463v-59.12463h6.064064v68.220727h-6.064064l-36.384388-59.12463v59.12463H835.207904v-68.220727z m112.185195 0h18.192194c11.576851 0 25.634455 0.826918 25.772274 19.70821-0.551279 17.916555-16.124899 19.57039-24.256258 19.70821h-13.644146v28.804307h-6.064064v-68.220727z m69.736743 0c9.096097 0 18.054374-0.275639 24.256258 0 11.99031 1.102557 19.432571 3.99677 19.70821 18.192194-0.413459 15.022342-12.955047 16.951817-16.676178 18.192193 3.99677 7.304441 18.192194 31.836339 18.192194 31.83634h-7.580081l-18.192193-31.83634h-13.644146v31.83634H1017.129842v-68.220727z m175.857873 0h6.064065v53.060565c-1.240377 9.785195-6.615343 16.676178-18.192194 16.676178-11.99031 0.689098-18.330013-7.7179-18.192194-10.612113 1.240377-1.653836 3.583311-2.480754 3.583311-2.480754s2.618573 0.13782 3.99677 2.480754c0.689098 2.756393 5.099327 5.512786 8.820457 5.650605 8.131359 0 13.919785-5.237147 13.919785-11.71467v-53.060565z m36.384388 0h39.41642v4.548048h-33.352356v24.256259h27.288291v4.548048h-27.288291v30.320323h33.352356v4.548049H1229.372103v-68.220727z m130.239569 0h51.544549v4.548048h-22.740242v63.672679h-6.064065v-63.672679h-22.740242v-4.548048z m107.637147 0h7.580081c0.13782 0 14.884522 38.313863 20.535127 52.647106 5.099327-14.884522 18.881292-52.647106 18.881292-52.647106h7.580081v68.220727h-4.548048v-60.640646l-19.70821 53.060565h-4.548049l-21.224226-53.060565v60.640646h-4.548048v-68.220727z m100.057066 0h7.58008l24.256259 68.220727h-7.580081l-7.580081-22.740243h-25.772274l-7.580081 22.740243h-7.580081l24.256259-68.220727z m54.576581 0h6.064065l36.384387 59.12463v-59.12463h6.064065v68.220727h-6.064065l-36.384387-59.12463v59.12463h-6.064065v-68.220727z m92.476985 0h7.580081l24.256259 68.220727h-7.580081l-7.580081-22.740243h-25.772275l-7.58008 22.740243h-7.580081l24.256258-68.220727z m130.377389 0h39.41642v4.548048h-33.352355v24.256259h27.288291v4.548048h-27.288291v30.320323h33.352355v4.548049h-39.41642v-68.220727z m66.704711 0h7.580081l20.259488 53.060565 19.156932-53.060565h7.58008v68.220727h-4.548048v-62.156663l-19.70821 54.576582h-4.548048l-21.224227-54.576582v62.156663h-4.548048v-68.220727z m86.412921 0h39.416419v4.548048H2003.918536v24.256259h27.288291v4.548048H2003.918536v30.320323h33.352355v4.548049h-39.416419v-68.220727z m66.70471 0h6.064065l36.384387 57.608614v-57.608614h6.064065v68.220727h-6.064065l-36.384387-57.608614v57.608614h-6.064065v-68.220727z m71.252759 0h51.40673v4.548048h-22.602423v63.672679h-6.064064v-63.672679h-22.740243v-4.548048z m163.591925 0h7.580081l16.676177 33.352355 16.676178-33.352355h7.580081l-21.224226 40.932436v27.288291h-6.064065v-27.288291l-21.224226-40.932436z m130.377389 0h51.544549v4.548048h-22.740242v63.672679h-6.064065v-63.672679H2429.781255v-4.548048z m74.284791 0h39.41642v4.548048h-33.352355v24.256259h27.288291v4.548048h-27.288291v30.320323h33.352355v4.548049h-39.41642v-68.220727z m66.704711 0h7.580081s17.503096 44.653567 20.259488 51.544549c2.480754-6.615343 20.672948-51.544549 20.672948-51.544549h7.58008v68.220727h-6.064064v-59.12463l-19.70821 51.544549h-4.548049l-19.70821-51.544549v59.12463h-6.064064v-68.220727z m-1791.655451 3.032032c-15.160162 1.102557-22.740242 15.297981-22.740242 30.320323-0.275639 15.57362 7.028802 30.320323 22.740242 31.836339 14.195424-0.964738 24.394078-13.230686 24.256258-30.320323 0.413459-18.192194-9.371736-31.009421-24.256258-31.836339z m332.007537 0c-17.778735 1.653836-22.878062 19.57039-22.740242 31.836339-0.551279 12.817227 7.99354 30.320323 22.740242 30.320323 14.746703-0.275639 24.394078-14.333244 24.256258-30.320323-0.551279-16.676178-6.201884-29.631225-24.256258-31.836339z m-994.368775 1.516016c0.13782 10.887752 0 20.259489 0 30.320323 14.195424-0.13782 26.874832 0.551279 30.320323-9.096097 1.929475-5.099327 1.516016-9.785195 0-12.128129-2.342934-9.509556-16.676178-9.096097-30.320323-9.096097z m178.889906 0V985.410498s9.785195-0.13782 16.676177 0c6.753163-0.413459 14.884522-3.583311 15.160162-13.644145 0.13782-10.060834-8.131359-12.403769-15.160162-13.644146-7.442261 0.13782-16.676178 0-16.676177 0z m137.957469 0v59.12463s9.233917 0.13782 13.506326 0c10.887752-1.102557 23.153701-11.025572 22.740242-30.320323 0-19.84603-11.85249-27.70175-23.291521-28.804307-4.410229 0.13782-12.955047 0-12.955047 0z m519.85572 0v30.320323h13.644146c6.890983 0 18.054374-2.618573 18.192193-15.160161 0-13.781965-12.541588-14.884522-18.192193-15.160162-5.374966-0.13782-7.99354-0.13782-13.644146 0z m69.736743 0V985.410498c5.926245-0.13782 12.955047 0.13782 16.676178 0 6.477524-0.826918 15.160162-4.685868 15.160161-13.644145s-6.753163-13.230686-15.160161-13.644146h-16.676178z m-657.81319 36.384388h22.740243s-10.612113-33.903634-11.439031-35.006191c-0.826918 1.102557-11.439031 35.006191-11.301212 35.006191z m222.716555 0h22.740242s-10.749933-33.765814-11.301211-34.868372c-0.689098 1.378197-11.576851 34.868371-11.439031 34.868372z m971.628533 0h22.740242s-10.612113-33.765814-11.301211-34.730552c-1.378197 1.929475-11.439031 34.730552-11.439031 34.730552z m147.053567 0h22.740242l-11.439031-34.868372s-11.439031 34.868371-11.301211 34.868372z" p-id="38589" fill="#000000"></path></svg>