<?xml version="1.0" standalone="no"?><!DOCTYPE svg PUBLIC "-//W3C//DTD SVG 1.1//EN" "http://www.w3.org/Graphics/SVG/1.1/DTD/svg11.dtd"><svg t="1783135999922" class="icon" viewBox="0 0 1024 1024" version="1.1" xmlns="http://www.w3.org/2000/svg" p-id="39702" xmlns:xlink="http://www.w3.org/1999/xlink" width="256" height="256"><path d="M922.612576 348.94929c0 1.298174-11.1643 125.144016-410.655848 125.144016S101.387424 349.81474 101.387424 348.94929H66.769439v515.288709c0 103.853955 229.344151 159.762001 445.187289 159.762001s445.273834-55.994591 445.273833-159.762001V348.94929z" fill="#D9DCE1" p-id="39703"></path><path d="M925.12238 853.592968a159.069642 159.069642 0 0 0-48.984449-50.542258l19.559162-28.559838a193.514537 193.514537 0 0 1 59.369844 61.706559z m-138.471941-91.478025a311.561866 311.561866 0 0 0-36.002704-8.654497l-14.453009-2.423259v-79.534821h34.617985v50.715349c6.750507 1.557809 15.491548 3.721433 25.963489 6.750507z m-15.578093-194.466532h-34.617985v-103.853955h34.617985zM101.820149 829.100744l-25.357674-23.54023a223.978364 223.978364 0 0 1 36.521974-31.069642l19.645707 28.473293a186.677485 186.677485 0 0 0-30.810007 26.136579z m120.037863-66.985801l-9.866126-33.146721c10.125761-3.029074 18.866802-5.192698 25.963489-6.750507v-50.715349h34.617985v79.534821l-14.453008 2.423259a312.946586 312.946586 0 0 0-36.26234 8.654497z m50.369169-194.466532h-34.617986v-103.853955h34.617986z" fill="#FFFFFF" p-id="39704"></path><path d="M639.697093 691.840433C639.697093 762.461122 582.490872 856.795132 511.870183 856.795132S383.956728 762.461122 383.956728 691.840433a127.913455 127.913455 0 1 1 255.740365 0z" fill="#56AAFF" p-id="39705"></path><path d="M379.023665 644.759973m17.308992 0l230.382691 0q17.308993 0 17.308993 17.308993l0 80.832995q0 17.308993-17.308993 17.308992l-230.382691 0q-17.308993 0-17.308992-17.308992l0-80.832995q0-17.308993 17.308992-17.308993Z" fill="#0478ED" p-id="39706"></path><path d="M495.513185 558.04192h31.502366a17.308993 17.308993 0 0 1 17.308993 17.308993v69.23597h-66.120352v-69.23597a17.308993 17.308993 0 0 1 17.308993-17.308993zM512.649087 201.649763l173.522651-100.824881-0.605815 200.611223-173.436106 100.824882 0.51927-200.611224z" fill="#0478ED" p-id="39707"></path><path d="M338.087897 100.824882L511.524003 0l174.647735 100.824882L512.649087 201.649763 338.087897 100.824882z" fill="#D9DCE1" p-id="39708"></path><path d="M512.649087 201.649763l-0.51927 200.611224-174.647735-100.824882 0.605815-200.611223L512.649087 201.649763z" fill="#56AAFF" p-id="39709"></path><path d="M511.956728 508.711291C296.11359 508.711291 66.769439 452.7167 66.769439 348.94929 66.769439 294.252874 132.976335 247.345504 253.187289 217.747126l21.63624-5.365787-1.817444 237.133198a1084.148749 1084.148749 0 0 0 238.950643 24.578769 1107.775524 1107.775524 0 0 0 224.151453-21.290061l-2.336714-243.62407 21.290061 4.759973c128.51927 28.906018 202.169033 77.890467 202.169033 135.010142 0 103.76741-229.430696 159.762001-445.273833 159.762001z m256.778904-255.82691l1.903989 191.783638c95.199459-24.665314 151.972955-61.273834 151.972955-95.718729S862.983097 276.943881 768.735632 252.884381zM239.859364 257.03854c-84.814064 24.146045-138.471941 59.2833-138.47194 91.91075s50.974983 67.158891 137.000676 91.651116z" fill="#D9DCE1" p-id="39710"></path><path d="M511.264368 1021.230561a1188.262339 1188.262339 0 0 0 217.227856-19.386071 113.633536 113.633536 0 0 0-113.633536-112.508452H409.920216a113.720081 113.720081 0 0 0-113.720081 112.508452A1190.772143 1190.772143 0 0 0 511.264368 1021.230561z" fill="#56AAFF" p-id="39711"></path></svg>