<?xml version="1.0" standalone="no"?><!DOCTYPE svg PUBLIC "-//W3C//DTD SVG 1.1//EN" "http://www.w3.org/Graphics/SVG/1.1/DTD/svg11.dtd"><svg t="1783134813523" class="icon" viewBox="0 0 1024 1024" version="1.1" xmlns="http://www.w3.org/2000/svg" p-id="20861" xmlns:xlink="http://www.w3.org/1999/xlink" width="256" height="256"><path d="M431.1552 480c-15.0528 52.6336 0.6144 105.6768 40.1408 135.8336 54.3232 41.472 131.328 15.36 147.1488-50.944 4.096-17.2544 5.2736-36.9664 1.3824-54.0672-11.776-51.2512-26.624-101.7856-40.5504-153.3952-68.096 7.8848-130.2016 60.0064-148.1216 122.5728z m284.0576-14.6944c13.9776 51.8144 14.592 103.2704-6.5024 153.6-57.7536 137.728-241.7152 160.768-336.5376 42.2912-66.6624-83.3024-65.536-202.8032 3.072-293.5808 39.936-52.8384 92.3648-87.3984 156.0576-105.1648l19.4048-5.3248c-4.3008-21.248-9.6256-41.7792-12.4416-62.6688-9.0112-67.4304 26.2144-128.1536 89.2928-155.648 62.7712-27.392 138.6496-11.0592 180.736 38.912 20.7872 24.5248 20.224 55.296-1.28 74.9568-21.0944 19.3024-50.9952 17.7152-73.472-4.608-12.6464-12.5952-26.112-22.528-44.9024-22.3232-26.88 0.3072-50.5344 21.4016-48.384 47.9744 1.8944 23.9616 8.8576 47.616 15.36 70.9632 1.1264 3.9936 11.0592 6.912 17.3056 7.8336 68.3008 10.0864 128.2048 37.4272 177.7664 85.8112 130.9696 127.6416 146.4832 334.3872 34.4064 483.328-78.2848 104.0384-184.832 162.2016-313.7024 174.5408-236.5952 22.528-443.5968-129.536-496.64-361.3696C26.368 422.656 145.408 196.1472 347.904 115.2c30.0032-11.9808 58.5216-1.5872 70.1952 25.4976 11.8784 27.4944-0.9728 55.6032-31.232 69.12-121.2416 54.272-195.4304 146.176-215.808 277.7088-27.2896 175.7696 84.7872 346.9312 256 395.264 139.4176 39.424 289.6896-8.4992 374.1696-119.296 81.2032-106.496 71.68-261.0688-21.8624-351.8976a203.7248 203.7248 0 0 0-93.3376-51.8656c10.1376 36.6592 19.9168 71.0656 29.184 105.5744z" fill="#d81e06" p-id="20862"></path></svg>